HIERARCHY
ROOT Hips
{
 OFFSET 0.000000 0.000000 0.000000
 CHANNELS 6 Xposition Yposition Zposition Yrotation Xrotation Zrotation
 JOINT Chest
 {
  OFFSET 0.000000 9.588913 -0.003946
  CHANNELS 3 Yrotation Xrotation Zrotation
  JOINT Chest2
  {
   OFFSET 0.000000 9.541882 0.008053
   CHANNELS 3 Yrotation Xrotation Zrotation
   JOINT Chest3
   {
    OFFSET 0.000000 9.501360 0.000000
    CHANNELS 3 Yrotation Xrotation Zrotation
    JOINT Chest4
    {
     OFFSET 0.000000 9.491660 0.000000
     CHANNELS 3 Yrotation Xrotation Zrotation
     JOINT Neck
     {
      OFFSET 0.000000 14.331917 0.000000
      CHANNELS 3 Yrotation Xrotation Zrotation
      JOINT Head
      {
       OFFSET 0.000000 8.884799 0.017034
       CHANNELS 3 Yrotation Xrotation Zrotation
       End Site
       {
        OFFSET 0.000000 16.896195 0.008993
       }
      }
     }
     JOINT RightCollar
     {
      OFFSET -2.923010 9.499495 0.000000
      CHANNELS 3 Yrotation Xrotation Zrotation
      JOINT RightShoulder
      {
       OFFSET -13.795216 0.000000 0.000000
       CHANNELS 3 Yrotation Xrotation Zrotation
       JOINT RightElbow
       {
        OFFSET -30.272209 0.000000 0.000000
        CHANNELS 3 Yrotation Xrotation Zrotation
        JOINT RightWrist
        {
         OFFSET -24.478199 0.000000 0.000000
         CHANNELS 3 Yrotation Xrotation Zrotation
         End Site
         {
          OFFSET -18.090752 0.000000 0.000000
         }
        }
       }
      }
     }
     JOINT LeftCollar
     {
      OFFSET 2.923010 9.499495 0.000000
      CHANNELS 3 Yrotation Xrotation Zrotation
      JOINT LeftShoulder
      {
       OFFSET 13.795216 0.000000 0.000000
       CHANNELS 3 Yrotation Xrotation Zrotation
       JOINT LeftElbow
       {
        OFFSET 30.272209 0.000000 0.000000
        CHANNELS 3 Yrotation Xrotation Zrotation
        JOINT LeftWrist
        {
         OFFSET 24.478199 0.000000 0.000000
         CHANNELS 3 Yrotation Xrotation Zrotation
         End Site
         {
          OFFSET 18.090752 0.000000 0.000000
         }
        }
       }
      }
     }
    }
   }
  }
 }
 JOINT RightHip
 {
  OFFSET -7.826875 0.019532 0.001973
  CHANNELS 3 Yrotation Xrotation Zrotation
  JOINT RightKnee
  {
   OFFSET 0.000000 -40.546152 -0.001885
   CHANNELS 3 Yrotation Xrotation Zrotation
   JOINT RightAnkle
   {
    OFFSET 0.000000 -39.417092 -0.003189
    CHANNELS 3 Yrotation Xrotation Zrotation
    JOINT RightToe
    {
     OFFSET 0.000000 -7.579396 17.243563
     CHANNELS 3 Yrotation Xrotation Zrotation
     End Site
     {
      OFFSET 0.000000 -1.500329 6.694466
     }
    }
   }
  }
 }
 JOINT LeftHip
 {
  OFFSET 7.826875 0.019532 0.001973
  CHANNELS 3 Yrotation Xrotation Zrotation
  JOINT LeftKnee
  {
   OFFSET 0.000000 -40.546152 -0.001885
   CHANNELS 3 Yrotation Xrotation Zrotation
   JOINT LeftAnkle
   {
    OFFSET 0.000000 -39.417092 -0.003189
    CHANNELS 3 Yrotation Xrotation Zrotation
    JOINT LeftToe
    {
     OFFSET 0.000000 -7.579396 17.243563
     CHANNELS 3 Yrotation Xrotation Zrotation
     End Site
     {
      OFFSET 0.000000 -1.500329 6.694466
     }
    }
   }
  }
 }
}
MOTION
Frames: 6
Frame Time: 0.008333
2.776392 76.590362 61.033347 13.910073 0.651178 7.508446 10.709223 25.824282 17.523272 1.471679 5.532602 3.088958 2.412736 8.529041 4.857726 7.566341 20.699567 13.126068 -10.429239 12.690247 -4.558273 -17.940915 -12.150044 -4.409390 -5.890245 4.366581 -15.757528 -25.958192 -9.514789 54.964147 38.849742 -33.106987 1.302525 -0.069158 -22.277700 0.839276 12.929460 4.358000 17.257178 34.792922 13.162383 -53.750014 6.373991 -17.635905 2.433837 -5.624407 -4.667104 -1.202890 -12.813631 -20.179798 -22.894434 11.914132 16.748491 -2.920993 5.445096 5.224191 28.880129 0.414393 -7.000136 -4.924164 27.286607 -37.240309 -26.455437 28.618059 65.662573 31.537964 12.242644 -11.633146 -7.032865 -0.852463 -17.316307 4.437751
2.804043 76.734865 61.118103 14.186910 0.748157 7.361949 10.736372 25.735968 17.670363 1.488464 5.540682 3.120675 2.439482 8.538290 4.906301 7.626500 20.668262 13.224763 -10.560391 12.804942 -4.580995 -18.172995 -11.932419 -4.413103 -5.446442 4.441272 -15.341810 -24.627315 -9.402329 55.113980 35.725049 -31.413901 1.973101 -1.995207 -21.333945 2.003105 12.900625 4.245130 17.274764 34.625247 13.220212 -53.928270 6.456261 -17.535893 2.448244 -5.289641 -4.538754 -1.453230 -12.840489 -20.067293 -22.691003 12.129597 16.974676 -2.824952 5.690009 5.178453 28.958708 0.476217 -7.802402 -5.717084 27.182809 -37.155665 -26.316189 27.896934 65.460114 30.842543 12.110440 -11.528740 -6.692012 -0.764355 -17.363665 4.284437
2.816471 76.882052 61.183224 14.504022 0.859420 7.193787 10.727627 25.607050 17.830627 1.501429 5.543185 3.151685 2.460301 8.539566 4.953847 7.674554 20.628635 13.325164 -10.683995 12.920090 -4.601557 -18.391392 -11.714137 -4.416207 -5.027656 4.341839 -14.885445 -23.414299 -9.373173 55.254491 32.661473 -29.670905 2.624382 -3.943475 -20.259044 3.252873 12.885046 4.178595 17.290478 34.382328 13.246363 -54.110329 6.470231 -17.433710 2.408542 -5.020071 -4.418846 -1.756412 -12.948200 -19.988051 -22.458340 12.163212 17.228301 -2.740298 6.005483 5.083370 28.997023 0.549023 -8.466447 -6.399744 26.942075 -37.149212 -26.201442 27.035133 65.248651 30.042175 12.153135 -11.365692 -6.241021 -0.658272 -17.386578 3.976333
2.819350 77.033438 61.218903 14.885890 1.016999 7.048185 10.633417 25.406758 17.960259 1.512861 5.543919 3.180950 2.478695 8.538407 4.998727 7.717312 20.588283 13.420797 -10.806320 13.036201 -4.618155 -18.608692 -11.493655 -4.412855 -4.627420 3.975739 -14.433938 -22.368537 -9.290979 55.477816 29.693743 -27.854758 3.219101 -5.716554 -19.224246 4.480073 12.849823 4.122336 17.307536 34.055180 13.304051 -54.286068 6.398772 -17.363483 2.293129 -4.892489 -4.350665 -2.042013 -13.145477 -19.975986 -22.237736 12.102647 17.494714 -2.664943 6.313554 4.921033 29.047559 0.625311 -8.986684 -7.019264 26.613975 -37.207345 -26.196126 26.033715 65.001653 29.119783 12.380948 -11.119886 -5.574389 -0.558859 -17.411972 3.445699
2.823747 77.190962 61.218521 15.340946 1.235771 7.000599 10.417848 25.128720 17.986785 1.528521 5.547870 3.209716 2.503588 8.541788 5.042833 7.773865 20.552178 13.511978 -10.943478 13.147633 -4.632701 -18.854958 -11.280528 -4.399703 -4.258532 3.372567 -14.025395 -21.519424 -9.022287 55.872160 26.949101 -26.079983 3.687179 -7.170733 -18.422287 5.551571 12.757691 4.020322 17.345121 33.627790 13.422960 -54.471588 6.250505 -17.338204 2.097088 -4.932207 -4.347573 -2.269088 -13.392736 -20.055484 -22.109217 12.015945 17.762617 -2.613770 6.573954 4.699768 29.156783 0.702892 -9.387276 -7.598433 26.270940 -37.274172 -26.377414 24.864952 64.697013 28.030158 12.738723 -10.864198 -4.640412 -0.462305 -17.384827 2.685824
2.831288 77.353672 61.203899 15.711947 1.409398 7.026504 10.256263 24.894717 17.968737 1.554410 5.558709 3.240348 2.544288 8.554664 5.089804 7.864468 20.521002 13.603666 -11.111914 13.242740 -4.649539 -19.160245 -11.095568 -4.377229 -3.945530 2.631884 -13.657170 -20.796152 -8.459935 56.428221 24.569812 -24.602164 3.957581 -8.198779 -17.975493 6.330723 12.575111 3.838272 17.410208 33.130392 13.581286 -54.669854 6.022786 -17.306382 1.832841 -5.101719 -4.396365 -2.449074 -13.524881 -20.100913 -22.082533 11.917296 18.035539 -2.592912 6.803588 4.440865 29.317345 0.769287 -9.712098 -8.130959 26.034850 -37.209705 -26.629722 23.667787 64.304640 26.928111 13.105429 -10.671212 -3.544469 -0.383166 -17.265270 1.791407
